<svg width="166" height="18" viewBox="0 0 166 18" fill="none" xmlns="http://www.w3.org/2000/svg">
<path d="M68.2192 14.1965H63.1504C62.8615 14.1965 62.5754 14.1397 62.3086 14.0294C62.0417 13.919 61.7993 13.7573 61.5953 13.5534C61.3913 13.3496 61.2297 13.1076 61.1197 12.8414C61.0097 12.5752 60.9536 12.29 60.9544 12.0022V0.101966H53.7726V12.0022C53.7343 15.9583 56.2942 17.8728 59.518 17.911H75.3882V0.101966H68.2192V14.1965ZM46.9994 10.005C51.4042 8.09693 50.7658 0.254615 43.8458 0.101966H28.0714V17.911H35.2596V11.716H39.1792C39.7228 11.6795 40.2639 11.8173 40.7233 12.1091C41.1828 12.4009 41.5365 12.8315 41.7327 13.3379L43.8394 17.911H51.2957C49.0614 12.7781 48.9528 11.398 46.9994 10.005ZM39.9261 7.91248H35.3362V3.81641H39.9261C43.201 3.96906 43.201 7.8934 39.9261 7.91248ZM16.7018 14.1965H13.2609C5.49185 14.1583 5.49184 3.96906 13.4525 3.81641H21.9557V0.000203002H9.72431C-3.34974 -0.0697609 -3.13269 17.9682 9.72431 18H23.7687V8.00788H16.7018V14.1965ZM132.249 17.8219H139.488V0.101966H132.294L132.249 17.8219ZM158.722 8.00788V14.1965H155.473C147.685 14.1583 147.685 3.96906 155.665 3.81641H164.085V0.000203002H151.854C138.754 -0.0697609 138.965 17.9682 151.854 17.9046H166V8.00788H158.722ZM119.258 0.101966H105.481V17.911H119.149C132.677 17.8728 132.574 0.464506 119.258 0.101966ZM115.817 14.1965H112.663V3.81641H115.817C123.516 3.96906 123.516 14.1583 115.817 14.1965ZM95.4589 0.00656471H79.5951V17.911H86.8599V3.81641H91.9223C92.2123 3.81035 92.5006 3.86279 92.7698 3.9706C93.039 4.07841 93.2835 4.23935 93.4887 4.44374C93.6938 4.64813 93.8553 4.89176 93.9636 5.15995C94.0718 5.42815 94.1244 5.71539 94.1183 6.00438V17.911H101.287V5.90897C101.255 1.84471 98.804 0.0383665 95.4589 0.00656471Z" fill="white"/>
</svg>
