<svg width="109" height="59" viewBox="0 0 109 59" fill="none" xmlns="http://www.w3.org/2000/svg">
<rect width="108.842" height="59" fill="white"/>
<path d="M53.1774 6H6V53H53.1774V6Z" fill="#EC1D26"/>
<path d="M15.9489 43.1041H23.3991V25.7907H15.9489V43.1041ZM19.6574 15.4004C18.5385 15.4014 17.4658 15.8446 16.6746 16.6327C15.8834 17.4209 15.4385 18.4895 15.4375 19.6041C15.4375 20.7194 15.882 21.789 16.6733 22.578C17.4646 23.3669 18.5379 23.8106 19.6574 23.8116C20.7776 23.8116 21.8519 23.3683 22.644 22.5792C23.4361 21.7902 23.8811 20.72 23.8811 19.6041C23.8801 18.4889 23.4347 17.4197 22.6427 16.6314C21.8507 15.8432 20.777 15.4004 19.6574 15.4004ZM35.8014 15.8952V23.3168H43.248V15.8952H35.8014ZM25.8678 43.1041H33.318V15.8952H25.8678V43.1041ZM35.8014 33.2086H43.248V25.7907H35.8014V33.2086Z" fill="white"/>
<path d="M102.841 6H55.6641V53H102.841V6Z" fill="#EC1D26"/>
<path d="M63.8825 15.9316C66.1562 15.9316 67.8523 16.8845 67.8523 19.5014C67.8523 21.9716 66.1084 23.0051 63.8825 23.0051H62.043V15.9316H63.8825ZM63.4006 21.9203H63.7685C65.2622 21.9203 66.4579 21.3045 66.4579 19.4904C66.4579 17.5846 65.2622 17.0495 63.7685 17.0495H63.4006V21.9203Z" fill="white"/>
<path d="M69.1289 15.9316H73.1097V17.1228H70.4681V18.827H72.8963V19.9705H70.4681V21.836H73.1465V23.0198H69.1289V15.9316Z" fill="white"/>
<path d="M78.14 17.2227C77.7101 17.0274 77.2439 16.9238 76.7714 16.9185C76.0576 16.9185 75.6051 17.2301 75.6051 17.7175C75.6051 18.205 75.8258 18.4285 76.8192 18.817C78.0738 19.2825 78.6036 19.8909 78.6036 20.9354C78.6036 22.2914 77.6213 23.1344 76.0687 23.1344C75.4607 23.1399 74.8566 23.0382 74.2843 22.8339L74.4094 21.5841C74.8961 21.8448 75.4388 21.9844 75.9914 21.9909C76.7051 21.9909 77.2166 21.6757 77.2166 21.1076C77.2166 20.5396 76.9369 20.2904 75.9141 19.8945C74.7184 19.4364 74.207 18.8683 74.207 17.8678C74.207 16.6107 75.182 15.819 76.6169 15.819C77.1707 15.8097 77.722 15.8953 78.2467 16.0719L78.14 17.2227Z" fill="white"/>
<path d="M79.8164 15.9316H81.1777V23.0051H79.8164V15.9316Z" fill="white"/>
<path d="M88.03 17.4013C87.4752 17.134 86.8656 16.9985 86.2493 17.0055C84.8218 17.0055 83.8983 17.9511 83.8983 19.45C83.8983 20.949 84.7335 21.9019 86.2199 21.9019C86.4873 21.9083 86.754 21.8737 87.0109 21.7993V20.0548H85.5723V18.9186H88.3022V22.7192C87.5742 22.9726 86.8071 23.0966 86.0359 23.0857C83.9719 23.0857 82.4414 21.7077 82.4414 19.4464C82.4414 17.2474 83.9131 15.8693 86.2567 15.8693C86.8922 15.8515 87.526 15.9445 88.1293 16.1442L88.03 17.4013Z" fill="white"/>
<path d="M94.1629 15.9334H95.388V23.0068H93.6699L91.9444 19.5434C91.5985 18.8434 91.157 17.8282 90.9731 17.3627H90.9547C90.9804 17.7988 91.0025 19.0962 91.0025 19.7046V23.0031H89.7773V15.9297H91.5875L93.2872 19.4261C93.5374 19.9355 93.9973 20.9984 94.1996 21.4932H94.2217C94.1923 20.9764 94.1629 19.6093 94.1629 18.8983V15.9334Z" fill="white"/>
<path d="M68.1435 33.0696H66.6718L66.0832 31.4386H63.2797L62.691 33.0696H61.293L63.9346 25.9961H65.4688L68.1435 33.0696ZM65.156 28.7119C65.0126 28.2867 64.7881 27.4768 64.6925 27.1103C64.5968 27.4768 64.3466 28.2867 64.1995 28.7119L63.6402 30.3648H65.7336L65.156 28.7119Z" fill="white"/>
<path d="M73.0112 28.338C72.945 28.0118 72.8089 27.3961 72.7611 27.0113H72.7427C72.6949 27.3778 72.5881 28.0045 72.5219 28.338L71.5175 33.0696H69.803L67.9414 25.9961H69.4131L70.3843 30.2328C70.4322 30.4637 70.6456 31.4899 70.7044 31.9664C70.7743 31.4899 70.9657 30.4637 71.0135 30.2328L71.8891 25.9961H73.6919L74.619 30.2328C74.6779 30.4747 74.8582 31.4973 74.9281 31.9664C74.9943 31.4973 75.1893 30.5004 75.2445 30.2328L76.2084 25.9961H77.5586L75.7559 33.0696H74.0488L73.0112 28.338Z" fill="white"/>
<path d="M84.1869 33.0696H82.7153L82.1266 31.4386H79.3305L78.7418 33.0696H77.3438L79.9854 25.9961H81.5159L84.1869 33.0696ZM81.1995 28.7119C81.0523 28.2867 80.8315 27.4768 80.7359 27.1103H80.7138C80.6182 27.4768 80.368 28.2867 80.2245 28.7119L79.6653 30.3648H81.755L81.1995 28.7119Z" fill="white"/>
<path d="M85.1016 25.9961H87.0478C88.7071 25.9961 89.8072 26.3626 89.8072 27.8506C89.8306 28.2556 89.6977 28.6543 89.4357 28.9649C89.1738 29.2756 88.8026 29.4748 88.3981 29.5218V29.5438C88.8727 29.6758 89.0456 29.958 89.2553 30.4857L90.2965 33.0696H88.8028L88.0669 31.0648C87.7873 30.3318 87.6622 30.1302 86.8344 30.1302H86.4665V33.0622H85.1052L85.1016 25.9961ZM86.4628 29.038H86.8565C87.9271 29.038 88.4091 28.7522 88.4091 28.0448C88.4091 27.2752 87.8315 27.1103 86.8565 27.1103H86.4628V29.038Z" fill="white"/>
<path d="M93.3044 25.9961C95.5781 25.9961 97.2742 26.949 97.2742 29.5658C97.2742 32.036 95.5303 33.0696 93.3044 33.0696H91.4648V25.9961H93.3044ZM92.8224 31.9847H93.1904C94.6841 31.9847 95.8798 31.369 95.8798 29.5548C95.8798 27.649 94.6841 27.1103 93.1904 27.1103H92.8224V31.9847Z" fill="white"/>
<path d="M66.0341 42.0037V43.2614H61.3086C61.3598 42.786 61.5133 42.3362 61.7691 41.9121C62.025 41.4849 62.5303 40.9194 63.2851 40.2159C63.8928 39.6472 64.2654 39.2617 64.4029 39.0593C64.5884 38.7798 64.6812 38.5035 64.6812 38.2305C64.6812 37.9285 64.5996 37.6972 64.4365 37.5365C64.2766 37.3727 64.0543 37.2908 63.7697 37.2908C63.4882 37.2908 63.2643 37.3759 63.098 37.5462C62.9317 37.7165 62.8358 37.9992 62.8102 38.3943L61.4669 38.2594C61.5469 37.5141 61.7979 36.9792 62.2201 36.6547C62.6423 36.3302 63.17 36.168 63.8033 36.168C64.4973 36.168 65.0426 36.3559 65.4392 36.7318C65.8358 37.1077 66.0341 37.5751 66.0341 38.1341C66.0341 38.4521 65.9765 38.7557 65.8614 39.0449C65.7494 39.3308 65.5703 39.6312 65.324 39.946C65.1609 40.1548 64.8667 40.4552 64.4413 40.8472C64.0159 41.2391 63.7457 41.4993 63.6306 41.6278C63.5186 41.7563 63.4275 41.8816 63.3571 42.0037H66.0341Z" fill="white"/>
<path d="M69.2292 36.168C69.9104 36.168 70.4429 36.4121 70.8267 36.9004C71.2841 37.4787 71.5127 38.4377 71.5127 39.7774C71.5127 41.1138 71.2825 42.0744 70.8219 42.6591C70.4413 43.141 69.9104 43.3819 69.2292 43.3819C68.5447 43.3819 67.993 43.1185 67.574 42.5916C67.1551 42.0615 66.9456 41.1186 66.9456 39.7629C66.9456 38.4329 67.1759 37.4755 67.6364 36.8908C68.017 36.4089 68.5479 36.168 69.2292 36.168ZM69.2292 37.2908C69.066 37.2908 68.9205 37.3438 68.7926 37.4498C68.6647 37.5526 68.5655 37.7389 68.4951 38.0088C68.4024 38.359 68.356 38.9485 68.356 39.7774C68.356 40.6062 68.3976 41.1765 68.4808 41.4881C68.5639 41.7965 68.6679 42.0021 68.7926 42.1049C68.9205 42.2077 69.066 42.2591 69.2292 42.2591C69.3923 42.2591 69.5378 42.2077 69.6657 42.1049C69.7937 41.9989 69.8928 41.8109 69.9632 41.5411C70.0559 41.1941 70.1023 40.6062 70.1023 39.7774C70.1023 38.9485 70.0607 38.3799 69.9776 38.0715C69.8944 37.7598 69.7889 37.5526 69.6609 37.4498C69.5362 37.3438 69.3923 37.2908 69.2292 37.2908Z" fill="white"/>
<path d="M76.9722 42.0037V43.2614H72.2467C72.2979 42.786 72.4514 42.3362 72.7073 41.9121C72.9632 41.4849 73.4685 40.9194 74.2233 40.2159C74.831 39.6472 75.2036 39.2617 75.3411 39.0593C75.5266 38.7798 75.6193 38.5035 75.6193 38.2305C75.6193 37.9285 75.5378 37.6972 75.3747 37.5365C75.2148 37.3727 74.9925 37.2908 74.7078 37.2908C74.4264 37.2908 74.2025 37.3759 74.0362 37.5462C73.8699 37.7165 73.7739 37.9992 73.7483 38.3943L72.4051 38.2594C72.485 37.5141 72.7361 36.9792 73.1583 36.6547C73.5804 36.3302 74.1081 36.168 74.7414 36.168C75.4354 36.168 75.9807 36.3559 76.3773 36.7318C76.7739 37.1077 76.9722 37.5751 76.9722 38.1341C76.9722 38.4521 76.9146 38.7557 76.7995 39.0449C76.6876 39.3308 76.5085 39.6312 76.2622 39.946C76.0991 40.1548 75.8048 40.4552 75.3795 40.8472C74.9541 41.2391 74.6838 41.4993 74.5687 41.6278C74.4568 41.7563 74.3656 41.8816 74.2952 42.0037H76.9722Z" fill="white"/>
<path d="M77.8405 41.3869L79.1454 41.2279C79.187 41.562 79.299 41.8174 79.4813 41.9941C79.6636 42.1708 79.8843 42.2591 80.1433 42.2591C80.4216 42.2591 80.655 42.1531 80.8437 41.9411C81.0356 41.729 81.1316 41.4431 81.1316 41.0833C81.1316 40.7427 81.0404 40.4729 80.8581 40.2737C80.6758 40.0745 80.4535 39.9749 80.1913 39.9749C80.0186 39.9749 79.8123 40.0087 79.5724 40.0761L79.7211 38.9726C80.0857 38.9822 80.364 38.9035 80.5559 38.7365C80.7478 38.5662 80.8437 38.3413 80.8437 38.0618C80.8437 37.8241 80.7734 37.6345 80.6327 37.4932C80.4919 37.3518 80.3048 37.2811 80.0714 37.2811C79.8411 37.2811 79.6444 37.3615 79.4813 37.5221C79.3182 37.6827 79.219 37.9172 79.1838 38.2257L77.9413 38.0136C78.0276 37.5863 78.1572 37.2458 78.3299 36.992C78.5058 36.735 78.7489 36.5342 79.0591 36.3896C79.3725 36.2419 79.7227 36.168 80.1097 36.168C80.7718 36.168 81.3027 36.38 81.7025 36.8041C82.0319 37.151 82.1966 37.543 82.1966 37.9799C82.1966 38.5999 81.8592 39.0947 81.1844 39.4641C81.5873 39.5509 81.9088 39.7452 82.1486 40.0472C82.3917 40.3492 82.5132 40.7138 82.5132 41.1411C82.5132 41.7612 82.2878 42.2896 81.8368 42.7265C81.3858 43.1635 80.8246 43.3819 80.1529 43.3819C79.5165 43.3819 78.9887 43.1988 78.5698 42.8326C78.1508 42.4631 77.9077 41.9812 77.8405 41.3869Z" fill="white"/>
</svg>
