<svg width="210" height="102" viewBox="0 0 210 102" fill="none" xmlns="http://www.w3.org/2000/svg">
<path d="M102.303 0H0V101.918H102.303V0Z" fill="#EC1D26"/>
<path d="M21.5738 80.4654H37.7294V42.9216H21.5738V80.4654ZM29.6157 20.3906C27.1894 20.3927 24.863 21.3538 23.1474 23.0629C21.4317 24.772 20.467 27.0894 20.4648 29.5063C20.4648 31.9247 21.4287 34.2442 23.1446 35.955C24.8604 37.6657 27.188 38.6279 29.6157 38.63C32.0447 38.63 34.3743 37.6688 36.092 35.9578C37.8096 34.2467 38.7745 31.9261 38.7745 29.5063C38.7724 27.088 37.8065 24.7694 36.0891 23.0601C34.3717 21.3508 32.0434 20.3906 29.6157 20.3906ZM64.6234 21.4635V37.5571H80.7711V21.4635H64.6234ZM43.0826 80.4654H59.2382V21.4635H43.0826V80.4654ZM64.6234 59.0073H80.7711V42.9216H64.6234V59.0073Z" fill="white"/>
<path d="M210.002 0H107.699V101.918H210.002V0Z" fill="#EC1D26"/>
<path d="M125.516 21.5391C130.447 21.5391 134.125 23.6054 134.125 29.2799C134.125 34.6365 130.343 36.8776 125.516 36.8776H121.527V21.5391H125.516ZM124.471 34.5252H125.269C128.508 34.5252 131.101 33.19 131.101 29.256C131.101 25.1234 128.508 23.963 125.269 23.963H124.471V34.5252Z" fill="white"/>
<path d="M136.898 21.5391H145.531V24.122H139.802V27.8176H145.068V30.2972H139.802V34.3424H145.61V36.9094H136.898V21.5391Z" fill="white"/>
<path d="M156.435 24.3305C155.503 23.9069 154.492 23.6822 153.467 23.6709C151.919 23.6709 150.938 24.3464 150.938 25.4034C150.938 26.4604 151.417 26.9452 153.571 27.7877C156.291 28.797 157.44 30.1163 157.44 32.3813C157.44 35.3218 155.31 37.1498 151.943 37.1498C150.625 37.1617 149.315 36.9411 148.074 36.4981L148.345 33.788C149.4 34.3534 150.577 34.6561 151.776 34.6702C153.323 34.6702 154.432 33.9867 154.432 32.7548C154.432 31.523 153.826 30.9825 151.608 30.1242C149.015 29.1308 147.906 27.8989 147.906 25.7293C147.906 23.0033 150.02 21.2867 153.132 21.2867C154.333 21.2664 155.528 21.4519 156.666 21.835L156.435 24.3305Z" fill="white"/>
<path d="M160.074 21.5391H163.026V36.8776H160.074V21.5391Z" fill="white"/>
<path d="M177.88 24.7251C176.677 24.1454 175.355 23.8516 174.019 23.8668C170.924 23.8668 168.921 25.9173 168.921 29.1678C168.921 32.4183 170.732 34.4846 173.955 34.4846C174.535 34.4985 175.114 34.4234 175.67 34.2621V30.4791H172.551V28.0154H178.471V36.2569C176.892 36.8063 175.229 37.0753 173.556 37.0516C169.081 37.0516 165.762 34.0634 165.762 29.1598C165.762 24.3913 168.953 21.4031 174.035 21.4031C175.413 21.3644 176.787 21.5662 178.096 21.9992L177.88 24.7251Z" fill="white"/>
<path d="M191.178 21.5392H193.835V36.8778H190.109L186.367 29.3674C185.617 27.8495 184.66 25.648 184.261 24.6387H184.221C184.277 25.5844 184.325 28.3978 184.325 29.7171V36.8698H181.668V21.5312H185.593L189.279 29.1131C189.822 30.2178 190.819 32.5226 191.258 33.5955H191.305C191.242 32.4749 191.178 29.5105 191.178 27.9687V21.5392Z" fill="white"/>
<path d="M134.758 58.698H131.566L130.29 55.1613H124.21L122.934 58.698H119.902L125.631 43.3594H128.957L134.758 58.698ZM128.279 49.2484C127.968 48.3265 127.482 46.5701 127.274 45.7754C127.067 46.5701 126.524 48.3265 126.205 49.2484L124.992 52.8327H129.532L128.279 49.2484Z" fill="white"/>
<path d="M145.31 48.4378C145.167 47.7305 144.871 46.3953 144.768 45.5608H144.728C144.624 46.3556 144.393 47.7146 144.249 48.4378L142.071 58.698H138.353L134.316 43.3594H137.508L139.614 52.5466C139.718 53.0473 140.18 55.2726 140.308 56.3058C140.46 55.2726 140.874 53.0473 140.978 52.5466L142.877 43.3594H146.786L148.797 52.5466C148.924 53.0712 149.315 55.2885 149.467 56.3058C149.61 55.2885 150.033 53.1268 150.153 52.5466L152.243 43.3594H155.171L151.262 58.698H147.56L145.31 48.4378Z" fill="white"/>
<path d="M169.542 58.698H166.351L165.075 55.1613H159.011L157.735 58.698H154.703L160.431 43.3594H163.75L169.542 58.698ZM163.064 49.2484C162.745 48.3265 162.266 46.5701 162.059 45.7754H162.011C161.804 46.5701 161.261 48.3265 160.95 49.2484L159.737 52.8327H164.269L163.064 49.2484Z" fill="white"/>
<path d="M171.531 43.3594H175.752C179.35 43.3594 181.735 44.1541 181.735 47.3808C181.786 48.2591 181.498 49.1235 180.93 49.7972C180.362 50.4709 179.557 50.9029 178.68 51.0048V51.0525C179.709 51.3386 180.084 51.9506 180.539 53.095L182.796 58.698H179.557L177.962 54.3507C177.355 52.7612 177.084 52.3241 175.289 52.3241H174.491V58.6821H171.539L171.531 43.3594ZM174.483 49.9558H175.337C177.658 49.9558 178.704 49.3359 178.704 47.802C178.704 46.133 177.451 45.7754 175.337 45.7754H174.483V49.9558Z" fill="white"/>
<path d="M189.321 43.3594C194.252 43.3594 197.929 45.4257 197.929 51.1002C197.929 56.4568 194.148 58.698 189.321 58.698H185.332V43.3594H189.321ZM188.276 56.3455H189.074C192.313 56.3455 194.906 55.0103 194.906 51.0763C194.906 46.9437 192.313 45.7754 189.074 45.7754H188.276V56.3455Z" fill="white"/>
<path d="M130.177 78.0726V80.8H119.93C120.041 79.7689 120.374 78.7936 120.928 77.874C121.483 76.9475 122.579 75.7214 124.216 74.1957C125.533 72.9627 126.341 72.1267 126.64 71.6878C127.042 71.0817 127.243 70.4826 127.243 69.8905C127.243 69.2356 127.066 68.734 126.713 68.3857C126.366 68.0304 125.884 67.8528 125.266 67.8528C124.656 67.8528 124.171 68.0374 123.81 68.4066C123.449 68.7758 123.241 69.3889 123.186 70.2457L120.273 69.9532C120.446 68.3369 120.991 67.177 121.906 66.4734C122.822 65.7698 123.966 65.418 125.339 65.418C126.844 65.418 128.027 65.8255 128.887 66.6406C129.747 67.4557 130.177 68.4693 130.177 69.6815C130.177 70.3711 130.052 71.0295 129.802 71.6565C129.559 72.2765 129.171 72.9278 128.637 73.6106C128.283 74.0634 127.645 74.7147 126.723 75.5647C125.8 76.4146 125.214 76.9789 124.965 77.2575C124.722 77.5362 124.524 77.8079 124.372 78.0726H130.177Z" fill="white"/>
<path d="M137.105 65.418C138.582 65.418 139.737 65.9474 140.569 67.0063C141.561 68.2603 142.057 70.3398 142.057 73.2448C142.057 76.1429 141.558 78.2259 140.559 79.4938C139.734 80.5387 138.582 81.0612 137.105 81.0612C135.621 81.0612 134.425 80.49 133.516 79.3475C132.608 78.198 132.153 76.1533 132.153 73.2135C132.153 70.3293 132.653 68.2533 133.651 66.9854C134.477 65.9405 135.628 65.418 137.105 65.418ZM137.105 67.8528C136.751 67.8528 136.436 67.9677 136.159 68.1976C135.881 68.4205 135.666 68.8246 135.514 69.4098C135.312 70.1691 135.212 71.4475 135.212 73.2448C135.212 75.0422 135.302 76.2787 135.482 76.9545C135.663 77.6233 135.888 78.0691 136.159 78.292C136.436 78.515 136.751 78.6264 137.105 78.6264C137.459 78.6264 137.774 78.515 138.052 78.292C138.329 78.0621 138.544 77.6546 138.697 77.0694C138.898 76.317 138.999 75.0422 138.999 73.2448C138.999 71.4475 138.908 70.2144 138.728 69.5456C138.548 68.8699 138.319 68.4205 138.041 68.1976C137.771 67.9677 137.459 67.8528 137.105 67.8528Z" fill="white"/>
<path d="M153.896 78.0726V80.8H143.649C143.76 79.7689 144.093 78.7936 144.647 77.874C145.202 76.9475 146.298 75.7214 147.935 74.1957C149.253 72.9627 150.061 72.1267 150.359 71.6878C150.761 71.0817 150.962 70.4826 150.962 69.8905C150.962 69.2356 150.785 68.734 150.432 68.3857C150.085 68.0304 149.603 67.8528 148.986 67.8528C148.375 67.8528 147.89 68.0374 147.529 68.4066C147.168 68.7758 146.96 69.3889 146.905 70.2457L143.992 69.9532C144.165 68.3369 144.71 67.177 145.625 66.4734C146.541 65.7698 147.685 65.418 149.058 65.418C150.563 65.418 151.746 65.8255 152.606 66.6406C153.466 67.4557 153.896 68.4693 153.896 69.6815C153.896 70.3711 153.771 71.0295 153.521 71.6565C153.279 72.2765 152.89 72.9278 152.356 73.6106C152.002 74.0634 151.364 74.7147 150.442 75.5647C149.52 76.4146 148.934 76.9789 148.684 77.2575C148.441 77.5362 148.243 77.8079 148.091 78.0726H153.896Z" fill="white"/>
<path d="M155.779 76.735L158.608 76.3902C158.699 77.1147 158.941 77.6685 159.337 78.0517C159.732 78.4348 160.21 78.6264 160.772 78.6264C161.376 78.6264 161.882 78.3965 162.291 77.9367C162.707 77.477 162.915 76.8569 162.915 76.0767C162.915 75.3382 162.718 74.7531 162.322 74.3211C161.927 73.8892 161.445 73.6733 160.876 73.6733C160.502 73.6733 160.054 73.7464 159.534 73.8927L159.857 71.4997C160.647 71.5206 161.251 71.3499 161.667 70.9877C162.083 70.6185 162.291 70.1308 162.291 69.5247C162.291 69.0092 162.139 68.5982 161.833 68.2916C161.528 67.9851 161.122 67.8319 160.616 67.8319C160.117 67.8319 159.69 68.006 159.337 68.3543C158.983 68.7027 158.768 69.2112 158.692 69.88L155.997 69.4202C156.184 68.4937 156.465 67.7552 156.84 67.2049C157.221 66.6476 157.748 66.2121 158.421 65.8987C159.101 65.5782 159.86 65.418 160.699 65.418C162.135 65.418 163.286 65.8778 164.153 66.7973C164.868 67.5497 165.225 68.3996 165.225 69.3471C165.225 70.6916 164.493 71.7644 163.03 72.5656C163.904 72.7537 164.601 73.1752 165.121 73.83C165.648 74.4849 165.911 75.2755 165.911 76.2021C165.911 77.5466 165.422 78.6926 164.445 79.6401C163.467 80.5875 162.249 81.0612 160.793 81.0612C159.413 81.0612 158.269 80.6641 157.36 79.8699C156.451 79.0688 155.924 78.0238 155.779 76.735Z" fill="white"/>
</svg>
