<svg width="284" height="40" viewBox="0 0 284 40" fill="none" xmlns="http://www.w3.org/2000/svg">
<g clip-path="url(#clip0_1417_520)">
<path d="M168.573 30.7667H165.836L179.187 0.0761719H181.744L194.813 30.7667H192.077L188.573 22.4803H172.128L168.573 30.7667ZM172.972 20.2296H187.627L180.363 2.63372L172.972 20.2296ZM206.373 9.48794H200.593V0.0761719H198.215V9.56466H193.995V11.5595H198.266V25.626C198.193 26.3025 198.269 26.9868 198.49 27.6303C198.711 28.2738 199.072 28.8606 199.545 29.349C200.019 29.8375 200.595 30.2154 201.231 30.456C201.868 30.6966 202.549 30.794 203.228 30.7411C204.319 30.7511 205.403 30.5604 206.425 30.1785V28.1324C205.625 28.5098 204.751 28.7021 203.867 28.6951C201.949 28.6951 200.645 27.8767 200.645 24.9611V11.4572H206.476L206.373 9.48794ZM210.747 30.7667H213.125V19.9483C213.125 14.2961 216.322 11.4317 219.519 11.4317C223.714 11.4317 224.634 14.603 224.634 18.337V30.7667H227.013V19.6925C227.013 15.2168 229.11 11.4317 233.304 11.4317C237.499 11.4317 238.829 14.782 238.829 18.7718V30.7667H241.156V17.979C241.156 13.1964 238.88 9.56466 233.662 9.56466C232.107 9.53526 230.579 9.97937 229.282 10.8381C227.985 11.6968 226.98 12.9295 226.399 14.3728C226.045 12.9456 225.206 11.6856 224.026 10.8086C222.846 9.93149 221.397 9.49178 219.928 9.56466C218.476 9.5991 217.063 10.0452 215.854 10.8511C214.645 11.657 213.69 12.7896 213.1 14.1171C213.1 13.0429 213.1 10.69 212.946 9.56466H210.67C210.798 10.8946 210.849 13.6056 210.849 14.6797L210.747 30.7667ZM255.555 30.7667C254.14 30.8247 252.729 30.5883 251.41 30.0725C250.091 29.5567 248.894 28.7727 247.894 27.7702C246.894 26.7677 246.113 25.5685 245.6 24.2485C245.087 22.9285 244.854 21.5165 244.916 20.1018C244.858 18.6891 245.094 17.2799 245.608 15.9629C246.122 14.646 246.904 13.4499 247.904 12.4502C248.903 11.4505 250.099 10.6688 251.416 10.1546C252.733 9.64033 254.142 9.40462 255.555 9.46236C256.972 9.39734 258.387 9.62763 259.71 10.1386C261.033 10.6496 262.235 11.4301 263.241 12.4306C264.246 13.4311 265.032 14.6297 265.549 15.9503C266.067 17.2709 266.304 18.6846 266.246 20.1018C266.307 21.521 266.073 22.9375 265.557 24.2612C265.042 25.5848 264.256 26.7865 263.25 27.7898C262.245 28.7931 261.041 29.5759 259.716 30.0885C258.391 30.601 256.974 30.832 255.555 30.7667ZM255.555 11.5084C254.438 11.4846 253.327 11.6936 252.295 12.1222C251.262 12.5507 250.331 13.1895 249.558 13.9977C248.786 14.806 248.191 15.766 247.81 16.8169C247.429 17.8678 247.271 18.9864 247.345 20.1018C247.274 21.2138 247.435 22.3286 247.818 23.3751C248.201 24.4216 248.797 25.3769 249.569 26.1804C250.342 26.9838 251.273 27.6178 252.303 28.0419C253.334 28.4661 254.441 28.6711 255.555 28.6439C256.673 28.6783 257.786 28.4787 258.823 28.0577C259.86 27.6368 260.797 27.004 261.575 26.1997C262.352 25.3955 262.953 24.4376 263.339 23.3875C263.725 22.3374 263.888 21.2182 263.816 20.1018C263.891 18.982 263.732 17.859 263.348 16.8045C262.964 15.75 262.363 14.7874 261.586 13.9784C260.808 13.1694 259.87 12.5317 258.831 12.1064C257.793 11.6811 256.677 11.4774 255.555 11.5084ZM283.202 12.8639C282.462 11.7459 281.443 10.8412 280.245 10.2399C279.047 9.63862 277.712 9.36173 276.373 9.4368C272.844 9.4368 269.468 11.1759 269.468 15.0634C269.468 22.5826 281.233 19.2322 281.233 24.7565C281.233 27.5954 278.675 28.6951 276.246 28.6951C275.098 28.7105 273.964 28.4404 272.946 27.9092C271.928 27.3779 271.058 26.6022 270.414 25.6516L268.547 27.0071C269.417 28.22 270.572 29.1999 271.91 29.8601C273.248 30.5203 274.729 30.8405 276.22 30.7923C279.903 30.7923 283.56 28.9509 283.56 24.6542C283.56 21.3549 281.003 19.7948 276.783 18.8485C273.432 18.1069 271.668 17.314 271.668 14.9611C271.668 12.6081 274.097 11.4572 276.246 11.4572C277.27 11.4165 278.287 11.6542 279.188 12.1451C280.089 12.6359 280.839 13.3616 281.361 14.245L283.202 12.8639ZM0.363281 30.7667H4.89014C8.95995 30.7667 12.8631 29.15 15.7409 26.2722C18.6187 23.3944 20.2354 19.4913 20.2354 15.4214C20.2354 11.3516 18.6187 7.4485 15.7409 4.5707C12.8631 1.69291 8.95995 0.0761719 4.89014 0.0761719H0.363281V30.7667ZM44.0717 0.0761719H39.5449C35.475 0.0761719 31.5719 1.69291 28.6941 4.5707C25.8163 7.4485 24.1996 11.3516 24.1996 15.4214C24.1996 19.4913 25.8163 23.3944 28.6941 26.2722C31.5719 29.15 35.475 30.7667 39.5449 30.7667H44.0717V0.0761719ZM64.5321 0.0761719H53.3812V30.7667H64.4809C68.5508 30.7667 72.4539 29.15 75.3317 26.2722C78.2095 23.3944 79.8262 19.4913 79.8262 15.4214C79.8262 11.3516 78.2095 7.4485 75.3317 4.5707C72.4539 1.69291 68.5508 0.0761719 64.4809 0.0761719M64.4809 26.1376H58.1382V4.7309H64.5832C67.3987 4.76449 70.0878 5.90482 72.0692 7.90534C74.0505 9.90585 75.1649 12.6058 75.1715 15.4214C75.1715 18.2591 74.046 20.9809 72.0418 22.9898C70.0377 24.9988 67.3186 26.1308 64.4809 26.1376ZM92.8441 9.53908C90.0223 9.53908 87.3162 10.66 85.3209 12.6553C83.3256 14.6506 82.2047 17.3567 82.2047 20.1785C82.2182 22.9913 83.3451 25.6844 85.3389 27.6686C87.3327 29.6528 90.0312 30.7667 92.8441 30.7667C95.6637 30.76 98.366 29.6369 100.36 27.643C102.354 25.6492 103.477 22.947 103.483 20.1273C103.483 17.3056 102.363 14.5994 100.367 12.6041C98.372 10.6089 95.6658 9.48794 92.8441 9.48794M92.8441 26.4956C91.1415 26.4956 89.5087 25.8193 88.3049 24.6154C87.101 23.4115 86.4246 21.7787 86.4246 20.0762C86.4246 18.3736 87.101 16.7408 88.3049 15.5369C89.5087 14.3331 91.1415 13.6567 92.8441 13.6567C94.5446 13.6635 96.1734 14.342 97.3759 15.5444C98.5783 16.7468 99.2568 18.3757 99.2635 20.0762C99.2635 21.7787 98.5872 23.4115 97.3833 24.6154C96.1794 25.8193 94.5466 26.4956 92.8441 26.4956ZM106.501 30.7667H111.156V0.0761719H106.501V30.7667ZM125.811 9.48794C123.641 9.488 121.524 10.1579 119.749 11.4061V0.0761719H115.069V30.7667H119.749V28.8485C121.524 30.0968 123.641 30.7666 125.811 30.7667C128.635 30.7667 131.344 29.6466 133.343 27.6521C135.342 25.6575 136.469 22.9514 136.476 20.1273C136.469 17.3032 135.342 14.5971 133.343 12.6026C131.344 10.608 128.635 9.48793 125.811 9.48794ZM125.811 26.4956C124.465 26.4967 123.154 26.0716 122.065 25.2813C120.976 24.4911 120.166 23.3762 119.749 22.0966C119.519 21.4483 119.407 20.7641 119.417 20.0762C119.411 19.3886 119.523 18.7051 119.749 18.0557C120.169 16.7783 120.98 15.6656 122.069 14.8759C123.157 14.0861 124.466 13.6595 125.811 13.6567C127.523 13.6499 129.167 14.3216 130.385 15.5248C131.602 16.7279 132.293 18.3645 132.307 20.0762C132.3 21.7811 131.618 23.4138 130.41 24.617C129.202 25.8201 127.567 26.4956 125.862 26.4956M153.586 9.48794L147.473 23.0941L141.412 9.46236H136.297L144.916 28.823L142.819 33.5544C142.539 34.1517 142.04 34.6182 141.426 34.8565C140.811 35.0947 140.128 35.0864 139.519 34.8332L138.854 34.5263L136.987 38.7463L138.599 39.4624C140.057 40.1097 141.713 40.153 143.204 39.5826C144.694 39.0123 145.898 37.8747 146.553 36.4189C146.553 36.4189 157.601 11.7641 158.624 9.46236L153.586 9.48794Z" fill="black"/>
</g>
<defs>
<clipPath id="clip0_1417_520">
<rect width="283.274" height="40" fill="white" transform="translate(0.363281)"/>
</clipPath>
</defs>
</svg>
